<?xml version="1.0" encoding="UTF-8" standalone="no"?>
<!-- Created with Inkscape (http://www.inkscape.org/) -->

<svg
   xmlns:dc="http://purl.org/dc/elements/1.1/"
   xmlns:cc="http://creativecommons.org/ns#"
   xmlns:rdf="http://www.w3.org/1999/02/22-rdf-syntax-ns#"
   xmlns:svg="http://www.w3.org/2000/svg"
   xmlns="http://www.w3.org/2000/svg"
   xmlns:sodipodi="http://sodipodi.sourceforge.net/DTD/sodipodi-0.dtd"
   xmlns:inkscape="http://www.inkscape.org/namespaces/inkscape"
   id="svg3168"
   version="1.1"
   inkscape:version="0.48.2 r9819"
   width="256"
   height="256"
   sodipodi:docname="wikdNode-screenshot-1.svg">
  <metadata
     id="metadata3174">
    <rdf:RDF>
      <cc:Work
         rdf:about="">
        <dc:format>image/svg+xml</dc:format>
        <dc:type
           rdf:resource="http://purl.org/dc/dcmitype/StillImage" />
        <dc:title></dc:title>
      </cc:Work>
    </rdf:RDF>
  </metadata>
  <defs
     id="defs3172" />
  <sodipodi:namedview
     pagecolor="#ffffff"
     bordercolor="#666666"
     borderopacity="1"
     objecttolerance="10"
     gridtolerance="10"
     guidetolerance="10"
     inkscape:pageopacity="0"
     inkscape:pageshadow="2"
     inkscape:window-width="1328"
     inkscape:window-height="1012"
     id="namedview3170"
     showgrid="false"
     inkscape:zoom="2.7277266"
     inkscape:cx="171.89014"
     inkscape:cy="169.74405"
     inkscape:window-x="0"
     inkscape:window-y="0"
     inkscape:window-maximized="0"
     inkscape:current-layer="svg3168"
     showguides="true"
     inkscape:guide-bbox="true" />
  <path
     inkscape:connector-curvature="0"
     id="path3299"
     d="m 132.06125,226.42334 c 17.34223,2.21016 34.10787,-4.6158 47.1931,-11.43223 16.96292,-17.42683 20.40056,-20.76893 21.39063,-38.08267 -1.93659,-15.98671 -11.58801,-25.72329 -20.79004,-31.81334 -4.65938,-3.9711 -11.30475,-7.60047 -16.78313,-10.88101 6.68478,-11.8585 13.55852,-46.067218 21.66376,-54.172454 14.31927,3.181138 25.25026,2.414679 36.80673,-5.593019 14.13226,-16.726675 17.84608,-30.01291 -1.84846,-42.70105 -21.59167,-10.671986 -36.1439,-7.63645 -50.98941,-25.5434645 1.92789,4.8253005 3.25478,7.7519555 6.1539,12.0927175 6.0275,9.7545 13.40141,13.403735 22.52239,16.333903 16.63101,3.030719 26.54236,17.76831 10.65308,27.50299 -7.65289,1.747282 -12.05847,-0.75094 -15.47266,-2.945349 l 1.73921,-1.739662 c 0.95657,-0.956815 3.65657,-2.660588 6,-3.786164 l 4.26079,-2.046502 0.29826,-2.087505 0.29825,-2.087506 -1.43285,-1.189162 -1.43285,-1.189163 -15.25788,0.276668 -15.25789,0.276668 -1.1024,1.75 -1.10241,1.75 1.05808,1.677501 1.05814,1.6775 3.93675,1.098705 3.93674,1.098704 0.22538,2.973795 0.22538,2.973795 -16.3215,44.000004 -16.3215,44 -0.79874,0 -0.79874,0 -9.38866,-20.68411 -9.38866,-20.68411 8.63052,-19.315894 c 4.74679,-10.623739 10.19645,-22.313119 12.11036,-25.976398 l 3.47984,-6.660509 2.67316,-1.033401 c 1.47024,-0.568371 3.52493,-1.171142 4.56598,-1.339492 l 1.89281,-0.30609 1.10207,-1.75 1.10207,-1.75 -1.10241,-1.75 -1.1024,-1.75 -15.25789,-0.276668 -15.25788,-0.276668 -1.43285,1.189163 -1.43285,1.189162 0.29825,1.985378 0.29826,1.985378 1.5,0.735224 c 0.825,0.404373 2.85,1.143494 4.5,1.64249 l 3,0.907267 -0.0704,4.459637 -0.0704,4.459637 -6.3374,14.5 c -3.48556,7.975 -6.70887,14.92 -7.1629,15.43333 l -0.82551,0.93334 -0.5889,-0.58891 c -1.07322,-1.07322 -8.26849,-18.373715 -11.55027,-27.771762 l -3.23006,-9.249934 1.02006,-1.628032 1.02006,-1.628032 3.79578,-0.5 3.79578,-0.5 1.097,-1.75 1.09699,-1.75 -1.10295,-1.75 -1.10295,-1.75 -20.26406,-0.271094 -20.26405,-0.271095 -1.42614,1.183589 -1.42613,1.183589 0.29825,1.985378 0.29826,1.985378 1.5,0.792566 c 0.825,0.435912 2.6806,1.038661 4.12355,1.339443 1.44295,0.300782 3.5943,1.340085 4.78077,2.309561 l 2.15721,1.762685 12.03317,27.5 c 6.61825,15.125004 12.28402,28.729314 12.5906,30.231814 l 0.55742,2.73181 -7.26472,16.51819 -7.26471,16.51819 -0.74966,0 c -0.41231,0 -0.972,-0.5625 -1.24377,-1.25 -0.27176,-0.6875 -8.02771,-19.7 -17.23544,-42.25 C 68.33786,85.066036 59.95706,64.168541 58.92159,61.177158 L 57.03893,55.73828 57.9574,54.819808 c 0.50516,-0.50516 2.37971,-1.217329 4.16568,-1.582598 l 3.24721,-0.664126 1.09033,-1.728524 1.09032,-1.728524 -1.10295,-1.75 -1.10295,-1.75 -20.00268,-0.270262 -20.00267,-0.270262 -1.25093,1.507276 -1.25093,1.507276 0.61073,2.433324 0.61073,2.433324 2.95398,0.648803 2.95398,0.648803 2.54696,2.003439 c 1.40083,1.101892 2.54696,2.371917 2.54696,2.822279 l 0,0.818841 C 28.993639,62.598611 20.566084,64.26325 16.75321,59.143533 13.915032,55.747415 12.553345,49.498968 13.92125,45.73289 23.675486,29.223411 47.400224,33.126967 60.02561,19.849139 61.994337,15.34392 61.285978,13.699565 64.394062,8.8361985 61.040818,12.369951 57.585275,16.647836 55.100623,17.839026 38.589393,22.755593 19.843502,23.772445 7.3654293,34.095592 0.69826752,40.5328 -1.7987588,41.098953 -3.5306661,55.492478 -0.61712444,75.32189 12.358651,80.578238 28.06117,81.726149 c 6.514911,0.822785 11.101436,-0.307131 16.89887,-2.34134 l 7.96398,17.61562 C 63.13047,119.57618 72.31653,141.663 80.18038,162.53526 l 6.23906,16.55972 1.89304,0.60082 1.89303,0.60083 2.29555,-0.57615 c 3.855776,-0.48292 4.126104,-5.1516 5.40183,-8.34029 1.70845,-4.27028 6.38048,-15.27363 10.38228,-24.45188 l 7.276,-16.68773 0.90997,-0.13617 0.90997,-0.13617 6.36097,13.76926 c 3.49853,7.57309 7.96162,17.84385 9.91796,22.8239 1.95635,4.98005 4.2073,10.06714 5.00211,11.30464 l 1.44513,2.25 2.8545,0 2.8545,0 0.97666,-1.25 c 0.53716,-0.6875 2.82133,-7.1 5.07592,-14.25 2.2546,-7.15 4.71208,-13.83594 5.46108,-14.85764 l 1.36181,-1.85763 c 5.41817,2.59745 14.36442,7.95246 17.9088,11.76856 9.09367,9.41089 13.90631,15.15436 9.46062,26.25986 -5.85457,15.35405 -20.05784,27.05874 -47.60173,27.30222 -32.94375,-6.35127 -63.372868,-41.58942 -92.192546,-50.44131 -15.342612,-1.46792 -23.419407,6.7429 -23.433708,19.74639 0.254378,10.80109 7.8342,18.46761 12.845486,25.24594 -11.185581,-0.98488 -7.461193,-1.69102 -18.052912,-4.48667 7.476817,4.9739 35.973464,20.73286 38.36944,20.82027 -0.300677,-7.25902 -5.835085,-34.12473 -7.441583,-38.79431 -1.63528,6.05726 -0.502659,9.80454 -1.448425,15.39021 -7.234454,-7.02621 -15.54759,-24.78726 -0.839106,-24.82387 5.173617,0.85866 52.513811,44.66962 85.795074,50.53536 z m -78.50009,-6.96365 c -3.5504,-0.9906 -10.736525,-4.72478 -13.243633,-6.77955 4.688372,0.87828 6.397265,1.04179 10.831697,3.30227 -1.146675,-5.03279 -1.572747,-10.8074 -1.107169,-13.50558 1.413138,5.1732 3.055797,11.81489 3.519105,16.98286 z m 84.51132,2.17609 c -10.84393,-1.24745 -36.7754,-13.11614 -63.396932,-31.53726 -5.214635,-2.72928 -21.230941,-21.34673 -33.570326,-18.72109 -15.858252,10.27186 -3.335406,20.57185 3.345992,33.43313 -15.982116,-5.38533 -22.172914,-39.65486 -2.014326,-37.09263 20.782856,-0.72105 68.832572,50.87292 95.494992,51.16592 22.46043,2.59925 57.41035,-22.74733 56.26449,-39.54882 -0.73404,-16.22737 -6.84002,-21.64117 -14.0772,-27.05069 -11.13528,-10.62893 -17.94183,-7.03179 -16.17003,-12.96624 11.23242,5.13651 19.92568,11.77748 26.37465,21.46869 5.98948,8.48644 6.33827,17.78126 3.10379,29.61022 -16.1161,22.31933 -26.74316,27.11059 -55.3551,31.23877 z M 189.12949,72.008025 c 0.75223,-0.906384 1.16249,-2.382728 1.91472,-3.289112 12.04222,2.308138 12.1877,2.137852 18.74493,0.534771 9.52981,-5.295054 14.55776,-21.518831 8.21043,-28.002748 -10.62502,-12.165848 -26.3502,-9.161575 -37.38018,-20.065788 5.6116,2.520784 10.36583,3.259997 20.90085,7.274488 7.00541,2.780269 13.73754,6.06845 19.64314,9.953403 5.70751,4.468377 8.21396,11.654826 4.52312,18.607112 -6.78746,15.801051 -22.22639,20.192196 -36.55701,14.987874 z M 36.94313,72.116039 C 27.322595,73.247371 17.451118,72.499892 9.8278777,67.853831 1.5529247,60.689306 2.6860717,55.373953 3.3085834,46.50715 13.171405,28.452972 36.574621,25.039815 55.416331,21.223286 44.70576,26.528328 25.552383,29.917526 15.857552,35.470957 5.5802534,43.635715 6.2946171,50.844306 10.299458,60.89259 c 10.573096,8.465611 9.200662,7.953382 24.261702,7.435489 1.413882,1.986724 0.83195,1.087723 2.38197,3.78796 z"
     style="fill:#ff0000"
     sodipodi:nodetypes="cccccccccccccsscccccccccccccccccccccsscsscccccccccccsscccsscsscccccccccccccccssscsscccscsscsscccccccccccccssccccccccccsscccccscccssscccssscccccccccccccccccccccccccccccccccccccccccccccccc" />
  <text
     xml:space="preserve"
     style="font-size:192.42835999px;font-style:normal;font-variant:normal;font-weight:normal;font-stretch:normal;line-height:125%;letter-spacing:0px;word-spacing:0px;fill:#000000;fill-opacity:1;stroke:none;font-family:GaramondNo8;-inkscape-font-specification:GaramondNo8"
     x="19.766575"
     y="177.93387"
     id="text3326"
     sodipodi:linespacing="125%"
     transform="scale(1.0024129,0.99759292)"><tspan
       sodipodi:role="line"
       id="tspan3328"
       x="19.766575"
       y="177.93387">W</tspan></text>
</svg>
