<?xml version="1.0" encoding="UTF-8" standalone="no"?>
<!-- Created with Inkscape (http://www.inkscape.org/) -->

<svg
   xmlns:dc="http://purl.org/dc/elements/1.1/"
   xmlns:cc="http://creativecommons.org/ns#"
   xmlns:rdf="http://www.w3.org/1999/02/22-rdf-syntax-ns#"
   xmlns:svg="http://www.w3.org/2000/svg"
   xmlns="http://www.w3.org/2000/svg"
   xmlns:sodipodi="http://sodipodi.sourceforge.net/DTD/sodipodi-0.dtd"
   xmlns:inkscape="http://www.inkscape.org/namespaces/inkscape"
   id="svg3168"
   version="1.1"
   inkscape:version="0.48.2 r9819"
   width="256"
   height="256"
   sodipodi:docname="wikdNode-screenshot-1.svg">
  <metadata
     id="metadata3174">
    <rdf:RDF>
      <cc:Work
         rdf:about="">
        <dc:format>image/svg+xml</dc:format>
        <dc:type
           rdf:resource="http://purl.org/dc/dcmitype/StillImage" />
        <dc:title></dc:title>
      </cc:Work>
    </rdf:RDF>
  </metadata>
  <defs
     id="defs3172" />
  <sodipodi:namedview
     pagecolor="#ffffff"
     bordercolor="#666666"
     borderopacity="1"
     objecttolerance="10"
     gridtolerance="10"
     guidetolerance="10"
     inkscape:pageopacity="0"
     inkscape:pageshadow="2"
     inkscape:window-width="1328"
     inkscape:window-height="1006"
     id="namedview3170"
     showgrid="false"
     inkscape:zoom="3.078125"
     inkscape:cx="128"
     inkscape:cy="128"
     inkscape:window-x="0"
     inkscape:window-y="0"
     inkscape:window-maximized="0"
     inkscape:current-layer="svg3168"
     showguides="true"
     inkscape:guide-bbox="true" />
  <path
     style="fill:#ff0000"
     d="m 131.54279,228.10833 c 55.60191,4.87464 88.20234,-54.13117 54.13963,-82.2041 -8.4713,-12.27532 -29.30226,-7.7067 -18.73904,-20.67752 5.8471,-15.38576 8.82339,-32.041282 17.19285,-46.361802 10.52586,-2.372143 27.93633,5.056998 37.22453,-7.067875 7.34759,-8.089875 13.94603,-21.832098 4.37043,-30.950553 C 210.28633,24.766694 183.437,26.736118 170.01384,7.9163198 c -2.02555,-1.7517677 5.06145,11.3992772 9.53964,13.5343612 11.39217,8.578687 27.59237,11.740118 35.06248,25.036199 5.98826,12.087811 -12.06928,21.508371 -20.87023,13.529743 -2.27393,-4.447083 9.54031,-5.59174 10.99777,-9.676935 1.84091,-4.295334 -3.56789,-6.079518 -6.9634,-5.195176 -8.66797,0.157175 -17.33595,0.31435 -26.00392,0.471524 -2.9869,2.340533 -1.95252,6.788817 1.77419,7.374883 4.06994,0.599342 7.4403,1.772709 6.38224,6.579757 -2.07699,8.531933 -6.07256,16.793923 -8.88887,25.221834 -7.89163,21.27451 -15.78327,42.54902 -23.6749,63.82353 -3.63392,-0.18913 -3.49589,-6.2327 -5.59422,-8.80521 -4.92686,-10.85433 -9.85372,-21.70867 -14.78058,-32.56301 7.88727,-17.401724 15.24083,-35.073504 24.22072,-51.952801 3.82007,-2.054532 11.02605,-1.397778 10.99248,-6.724433 -1.21799,-4.544452 -6.0798,-2.626125 -9.59579,-3.0948 -7.59373,-0.137695 -15.18745,-0.275391 -22.78118,-0.413086 -4.81413,1.932123 -2.71461,8.604936 2.44761,8.316507 6.02885,-0.147645 3.94562,5.566368 4.15175,9.644642 -4.12381,10.44974 -8.69725,21.040439 -13.93674,31.008397 -5.92896,-6.40074 -8.72321,-19.533233 -12.75012,-28.518827 -0.44589,-3.593321 -4.62968,-7.606591 -1.65519,-10.815634 2.16036,-3.13406 8.4697,0.19095 9.70873,-4.377961 1.81008,-3.695254 -3.34776,-5.794244 -6.60808,-4.772776 -11.790444,-0.157733 -23.580887,-0.315467 -35.37133,-0.473201 -5.266906,2.206574 -2.102533,9.283338 3.36779,8.469943 5.906912,0.942768 8.265837,6.220203 10.039075,11.159332 7.368786,17.477584 15.905505,34.564592 21.909325,52.539648 -1.32486,5.89621 -4.90846,11.5509 -7.09395,17.35508 -2.42157,5.50606 -4.84314,11.01213 -7.26471,16.51819 -5.935485,-5.45982 -7.002214,-16.4571 -11.206044,-23.84703 C 76.053264,103.43094 65.748959,79.886558 57.03893,55.73828 c 2.950511,-3.485185 9.162311,-1.311771 10.453481,-6.529456 -0.892549,-4.329737 -5.0077,-3.811058 -8.593335,-3.679881 -11.186462,-0.151144 -22.372924,-0.302287 -33.559386,-0.453431 -3.202896,1.835212 -3.031469,7.730884 0.608541,8.296081 4.380066,-0.385569 14.314744,7.61333 4.672838,8.043895 C 16.583189,66.739292 6.1480712,47.124079 19.325599,39.239741 31.401876,28.481675 51.55908,29.676607 60.472217,15.060221 c 2.266192,-4.300638 4.84866,-8.5208153 0.434584,-2.238559 -7.237328,8.593916 -20.512893,6.776032 -30.397259,10.7365 C 17.145933,27.043694 1.0658363,33.804913 -2.1003674,48.783454 -6.1307092,63.11163 4.9991182,78.705943 19.600328,80.584137 c 8.393984,4.088172 20.888437,-2.427036 26.421984,1.150324 14.73307,31.912829 28.3105,64.351639 40.397128,97.360519 5.602836,3.35256 11.12278,-1.80057 11.48345,-7.71479 5.64983,-13.8134 11.71095,-27.45295 17.65828,-41.13961 3.84219,-0.65633 3.72142,6.03293 5.87528,8.50603 6.83207,13.4784 11.39391,28.05277 18.61922,41.28908 6.89679,2.36172 8.87325,-4.71374 10.14446,-10.27336 -1.94773,-38.06871 36.58585,-10.36854 34.86706,6.50262 -33.15321,71.6479 -73.64712,19.43032 -138.800296,-13.47485 -12.882018,-2.78641 -25.847299,8.33984 -23.302583,21.73541 -1.032874,8.7097 12.395493,19.49411 10.784655,23.07494 -5.736308,0.24474 -22.932401,-8.0135 -10.01117,-0.54378 10.585059,5.97008 21.016521,12.40293 32.257404,17.05936 -1.430573,-13.09193 -4.147129,-26.05224 -7.441583,-38.79431 -2.142261,4.81252 1.183496,21.72751 -5.472708,10.49337 -20.190677,-50.05211 68.062191,28.97272 88.461881,32.29324 z m -77.98163,-8.64864 c -3.92635,-0.67464 -19.231997,-10.12215 -7.169349,-4.52032 11.05428,11.26124 0.871135,-13.95581 4.188178,-10.4595 1.276466,4.92799 2.485556,9.90255 2.981171,14.97982 z m 84.10049,1.54724 c -16.87049,0.55739 -53.146798,-32.2279 -80.155994,-47.94365 -29.086917,-16.59644 -31.849923,18.49276 -13.054442,31.74728 -24.255829,-20.1086 -11.079359,-45.98291 16.59732,-30.34793 24.112772,13.8997 44.355416,34.45541 70.523246,44.69237 35.35461,9.23652 85.98711,-46.45084 38.21063,-73.77562 -5.81921,-3.49064 -7.22113,-8.33833 -0.49122,-2.12441 11.29505,8.28244 19.42808,15.30184 21.80109,32.24049 -5.7961,26.6663 -25.31215,43.50911 -53.43063,45.51147 z M 189.12949,72.008025 c 5.56028,-6.854057 21.05872,4.074772 27.18918,-7.373484 9.46941,-9.895729 5.22121,-25.685727 -7.13892,-30.560511 -11.36968,-7.14643 -26.14574,-9.3766 -35.06761,-20.037692 13.13388,12.017862 32.0597,14.300095 45.65249,25.395795 7.30444,6.708994 9.13329,18.566615 1.33899,25.700648 -7.60522,9.361542 -21.17602,11.054958 -31.97413,6.875244 z M 36.94313,72.116039 C 25.838606,73.16871 10.643616,73.18464 5.1649788,61.42411 -2.4290478,49.276228 9.2789566,37.295109 19.887606,32.459611 30.477726,26.866601 42.029285,23.414691 53.556458,20.349341 40.339417,26.349358 25.262028,29.359969 13.897197,38.68807 6.1511578,45.203395 2.3979994,59.434752 12.67753,65.479392 c 6.78201,7.415631 20.391682,-0.623827 24.2656,6.636647 z"
     id="path3299"
     inkscape:connector-curvature="0"
     sodipodi:nodetypes="cccccccccccccccccccccccccccccccccccccccccccccccccccccccccccccccccccccccccccccccccccccccccccc"
     inkscape:export-xdpi="29.686663"
     inkscape:export-ydpi="29.686663"
     inkscape:export-filename="/Users/lrees/Versioned/Soul/App/wikdNode/images/wikdNode-screenshot-1.png" />
  <text
     xml:space="preserve"
     style="font-size:192.42835999px;font-style:normal;font-variant:normal;font-weight:normal;font-stretch:normal;line-height:125%;letter-spacing:0px;word-spacing:0px;fill:#000000;fill-opacity:1;stroke:none;font-family:GaramondNo8;-inkscape-font-specification:GaramondNo8"
     x="19.766575"
     y="177.93387"
     id="text3326"
     sodipodi:linespacing="125%"
     transform="scale(1.0024129,0.99759292)"
     inkscape:export-filename="/Users/lrees/Versioned/Soul/App/wikdNode/images/wikdNode-screenshot-1.png"
     inkscape:export-xdpi="29.686663"
     inkscape:export-ydpi="29.686663"><tspan
       sodipodi:role="line"
       id="tspan3328"
       x="19.766575"
       y="177.93387">W</tspan></text>
</svg>
